<?xml version="1.0" encoding="UTF-8" standalone="no"?>
<!-- Created with Inkscape (http://www.inkscape.org/) -->

<svg
   xmlns:dc="http://purl.org/dc/elements/1.1/"
   xmlns:cc="http://creativecommons.org/ns#"
   xmlns:rdf="http://www.w3.org/1999/02/22-rdf-syntax-ns#"
   xmlns:svg="http://www.w3.org/2000/svg"
   xmlns="http://www.w3.org/2000/svg"
   xmlns:sodipodi="http://sodipodi.sourceforge.net/DTD/sodipodi-0.dtd"
   xmlns:inkscape="http://www.inkscape.org/namespaces/inkscape"
   width="156.5484mm"
   height="152.65295mm"
   viewBox="0 0 156.54841 152.65295"
   version="1.1"
   id="svg196"
   inkscape:version="0.92.2 (5c3e80d, 2017-08-06)"
   sodipodi:docname="Police1.svg">
  <defs
     id="defs190">
    <meshgradient
       inkscape:collect="always"
       id="meshgradient44"
       gradientUnits="userSpaceOnUse"
       x="77.666634"
       y="141.25832"
       gradientTransform="matrix(1.0209644,0,0,1.0303867,-2.91247,-9.7581153)">
      <meshrow
         id="meshrow5722">
        <meshpatch
           id="meshpatch5724">
          <stop
             path="c 42.4959,4.37474e-005  107.977,22.1832  109.046,-22.7179"
             style="stop-color:#ffffff;stop-opacity:1"
             id="stop5726" />
          <stop
             path="c 23.5143,46.4155  2.66734,57.2844  2.6719,89.5353"
             style="stop-color:#000000;stop-opacity:1"
             id="stop5728" />
          <stop
             path="c -17.6444,-21.6493  -42.5005,15.7686  -85.7972,16.5708"
             style="stop-color:#ffffff;stop-opacity:1"
             id="stop5730" />
          <stop
             path="c 3.4694,-29.8454  15.2296,-53.8107  -25.9207,-83.3882"
             style="stop-color:#000000;stop-opacity:1"
             id="stop5732" />
        </meshpatch>
      </meshrow>
    </meshgradient>
    <meshgradient
       inkscape:collect="always"
       id="meshgradient5736"
       gradientUnits="userSpaceOnUse"
       x="80.339333"
       y="138.31836"
       gradientTransform="translate(111.98594,-6.6817382)">
      <meshrow
         id="meshrow10155">
        <meshpatch
           id="meshpatch10157">
          <stop
             path="c 39.5559,-0.000119998  114.659,3.47465  106.106,-19.7779"
             style="stop-color:#ffffff;stop-opacity:1"
             id="stop10159" />
          <stop
             path="c 9.62384,23.6091  6.14932,44.5453  3.47513,86.5951"
             style="stop-color:#000000;stop-opacity:1"
             id="stop10161" />
          <stop
             path="c -28.3293,-17.9072  -48.3745,19.7778  -87.9315,19.7778"
             style="stop-color:#ffffff;stop-opacity:1"
             id="stop10163" />
          <stop
             path="c 0.00199009,-33.4977  -21.6464,-53.0977  -21.6496,-86.595"
             style="stop-color:#000000;stop-opacity:1"
             id="stop10165" />
        </meshpatch>
      </meshrow>
    </meshgradient>
    <meshgradient
       inkscape:collect="always"
       id="meshgradient14774"
       gradientUnits="userSpaceOnUse"
       x="49.635475"
       y="149.79961"
       gradientTransform="matrix(-3.7795276,0.04707156,0,3.7795276,721.84787,-276.45799)">
      <meshrow
         id="meshrow14776">
        <meshpatch
           id="meshpatch14778">
          <stop
             path="c 42.9199,0  85.8397,0  128.76,0"
             style="stop-color:#ffffff;stop-opacity:1"
             id="stop14780" />
          <stop
             path="c 0,20.1418  0,40.2837  0,60.4255"
             style="stop-color:#000000;stop-opacity:1"
             id="stop14782" />
          <stop
             path="c -42.9199,0  -85.8397,0  -128.76,0"
             style="stop-color:#ffffff;stop-opacity:1"
             id="stop14784" />
          <stop
             path="c 0,-20.1418  0,-40.2837  0,-60.4255"
             style="stop-color:#000000;stop-opacity:1"
             id="stop14786" />
        </meshpatch>
      </meshrow>
    </meshgradient>
    <meshgradient
       inkscape:collect="always"
       id="meshgradient14836"
       gradientUnits="userSpaceOnUse"
       gradientTransform="matrix(-3.7795276,0.04707156,0,3.7795276,721.84786,-276.45799)"
       x="49.635475"
       y="149.79961">
      <meshrow
         id="meshrow14848">
        <meshpatch
           id="meshpatch14846">
          <stop
             id="stop14838"
             style="stop-color:#ffffff;stop-opacity:1"
             path="c 42.9199,0  85.8397,0  128.76,0" />
          <stop
             id="stop14840"
             style="stop-color:#000000;stop-opacity:1"
             path="c 0,20.1418  0,40.2837  0,60.4255" />
          <stop
             id="stop14842"
             style="stop-color:#ffffff;stop-opacity:1"
             path="c -42.9199,0  -85.8397,0  -128.76,0" />
          <stop
             id="stop14844"
             style="stop-color:#000000;stop-opacity:1"
             path="c 0,-20.1418  0,-40.2837  0,-60.4255" />
        </meshpatch>
      </meshrow>
    </meshgradient>
  </defs>
  <sodipodi:namedview
     id="base"
     pagecolor="#ffffff"
     bordercolor="#666666"
     borderopacity="1.0"
     inkscape:pageopacity="0.0"
     inkscape:pageshadow="2"
     inkscape:zoom="0.98994949"
     inkscape:cx="447.21826"
     inkscape:cy="338.04741"
     inkscape:document-units="mm"
     inkscape:current-layer="layer1"
     showgrid="false"
     fit-margin-top="0"
     fit-margin-left="0"
     fit-margin-right="0"
     fit-margin-bottom="0"
     showguides="false"
     inkscape:window-width="1600"
     inkscape:window-height="838"
     inkscape:window-x="-8"
     inkscape:window-y="-8"
     inkscape:window-maximized="1" />
  <metadata
     id="metadata193">
    <rdf:RDF>
      <cc:Work
         rdf:about="">
        <dc:format>image/svg+xml</dc:format>
        <dc:type
           rdf:resource="http://purl.org/dc/dcmitype/StillImage" />
        <dc:title></dc:title>
      </cc:Work>
    </rdf:RDF>
  </metadata>
  <g
     inkscape:label="Capa 1"
     inkscape:groupmode="layer"
     id="layer1"
     transform="translate(-37.041664,-71.72619)">
    <ellipse
       style="opacity:1;fill:#000000;stroke-width:0.29958874"
       id="path40"
       cx="285.46869"
       cy="137.51654"
       rx="77.107262"
       ry="76.171814" />
    <ellipse
       style="opacity:1;fill:#ffffff;stroke-width:0.21723664"
       id="path10167"
       cx="104.50469"
       cy="153.54391"
       rx="11.733063"
       ry="12.18948"
       transform="matrix(0.98873643,-0.14966722,0.17578763,0.98442811,0,0)" />
    <ellipse
       style="opacity:1;fill:#ffffff;stroke-width:0.19765514"
       id="path10167-8"
       cx="143.84328"
       cy="147.26765"
       rx="10.416692"
       ry="11.366242"
       transform="matrix(0.98752933,-0.15743515,0.16716463,0.985929,0,0)" />
    <rect
       style="opacity:0.85079998;fill:url(#meshgradient5736);fill-opacity:1;stroke-width:0.26458332"
       id="rect5734"
       width="118.66766"
       height="100.49334"
       x="187.24715"
       y="116.40226" />
    <ellipse
       style="opacity:1;fill:#000000;stroke-width:0.38414729"
       id="path10195"
       cx="134.59505"
       cy="138.71927"
       rx="4.543582"
       ry="4.1426778" />
    <ellipse
       style="opacity:1;fill:#000000;stroke-width:0.38414729"
       id="path10195-3"
       cx="170.9437"
       cy="125.75669"
       rx="4.543582"
       ry="4.1426778" />
    <path
       style="fill:url(#meshgradient14836);fill-opacity:1;stroke-width:0.21363015"
       d="M 534.25 292.05859 L 528.5918 292.12891 L 522.93555 292.19922 C 522.67892 293.3996 522.52109 294.61583 522.37891 295.625 C 514.79237 342.47572 488.44702 393.52251 458.52344 424.99414 C 451.02508 432.68703 445.34186 437.92949 436.4043 445.39844 C 429.75263 450.9571 421.8571 456.88501 421.09375 456.89453 C 420.93577 456.89653 419.58237 456.30485 418.08594 455.57812 C 415.26917 454.21021 413.44343 453.40872 410.87891 452.41406 C 410.05644 452.09507 407.71499 451.05467 405.67578 450.10352 C 403.63654 449.15236 401.94265 448.37462 401.91211 448.375 C 401.88191 448.37538 400.13654 447.57084 398.03516 446.58594 C 395.93378 445.60103 393.25307 444.35126 392.07812 443.80859 C 382.60365 439.43285 376.23501 436.41965 368.15234 432.49219 C 362.98252 429.98005 357.79021 427.4826 356.61523 426.94141 C 355.44029 426.40018 346.98116 422.46821 337.81641 418.20312 C 302.95389 401.97879 299.38411 400.33396 296.26562 399.06445 C 294.91442 398.51438 290.34705 396.45224 286.11719 394.48242 C 281.88729 392.51257 277.65872 390.54895 276.71875 390.11914 C 275.77878 389.68937 272.74945 388.28617 269.98828 387 C 267.22715 385.71379 263.95832 384.19223 262.72461 383.61914 C 261.4909 383.04616 259.0037 381.88724 257.19531 381.04297 C 255.38692 380.1987 253.87807 379.50736 253.84375 379.50781 C 253.80975 379.50823 252.4097 378.85238 250.73242 378.05078 L 247.68164 376.59375 L 244.17188 376.63867 C 241.23099 376.67647 240.4145 376.75733 239.14258 377.14844 C 237.22714 377.73778 235.28852 378.77955 233.26953 380.30273 C 231.62691 381.54193 231.04703 381.70773 229.71875 381.32422 C 229.36688 381.22293 227.34931 380.61629 225.23438 379.97656 C 219.78766 378.3291 217.51603 377.8246 215.66406 377.84766 C 213.85344 377.87036 212.9216 378.16224 209.05469 379.92188 C 206.00223 381.31073 204.44559 381.83164 203.31445 381.8457 C 202.63924 381.8537 202.39419 381.71761 201.73438 380.95898 C 201.30483 380.465 200.62766 379.48567 200.23047 378.7832 C 199.22746 377.00921 198.06834 375.71735 197.48633 375.72461 C 197.22252 375.72761 196.68403 376.06988 196.27539 376.49609 L 195.53906 377.26367 L 195.32227 381.65625 C 195.14047 385.33422 195.04692 386.08975 194.75 386.31055 C 194.55498 386.45568 192.82643 386.81193 190.9082 387.10352 C 177.88191 389.08369 170.23544 391.23305 164.87305 394.42188 C 163.52176 395.22542 161.10443 397.73138 158.57617 400.79102 C 149.16326 389.25356 139.62023 377.72591 130.19336 366.76172 C 129.7521 387.96256 128.92322 409.16211 128.91602 430.36523 C 132.67297 432.59834 136.48087 434.77081 140.33789 436.86719 C 140.33289 437.31918 140.31961 437.67295 140.32031 438.25 L 140.32422 442.12695 L 141.26172 444.25195 C 143.11902 448.46333 146.44294 451.38508 151.10352 452.9043 C 152.57802 453.38494 153.26178 453.46911 156.0957 453.52539 C 161.03944 453.62329 163.63698 452.97858 165.75586 451.12695 C 166.13239 450.79795 166.45936 450.44274 166.79883 449.97656 C 173.9078 453.18848 181.03526 456.19474 188.09766 458.98047 C 190.95156 462.56071 192.43475 463.87309 194.41602 464.72461 C 196.17822 465.48203 197.69924 465.65857 201.96289 465.60547 C 203.65643 465.58427 204.67281 465.55707 205.49023 465.47656 C 208.4384 466.52 211.36749 467.53464 214.25586 468.50195 C 213.0188 467.07916 211.76172 465.62093 210.49023 464.13477 C 213.66151 462.86833 215.27235 461.16201 216.15625 458.27344 C 216.55061 456.98469 216.60551 456.36396 216.54492 453.88867 L 216.47266 451.00586 L 217.19141 451.03125 C 218.03178 451.06145 221.43539 452.67695 230.4668 457.33594 C 240.00883 462.25832 246.79114 465.55632 248.73242 466.2168 C 249.67239 466.53654 252.89253 468.00182 255.88867 469.47266 C 256.80365 473.83876 257.48238 477.70364 257.95312 481.12695 C 288.19375 488.43346 305.86583 489.45844 294.76953 484.81055 C 292.71332 483.95097 286.92798 481.53608 281.91406 479.44336 C 261.28952 470.83507 254.57202 467.77247 250.39844 465.07812 C 247.69241 463.33124 247.76953 463.50806 247.76953 459.15234 C 247.76953 453.42455 248.56594 437.8458 248.97266 435.60352 C 249.23269 434.16892 249.33516 434.18953 254.46484 436.70703 C 257.06932 437.98523 266.74527 442.91287 275.96875 447.65625 C 285.19223 452.39959 294.90321 457.39026 297.54688 458.74609 C 300.19057 460.10189 304.03562 462.08109 306.0918 463.14453 C 308.14801 464.20801 317.2807 468.89872 326.38672 473.56836 C 335.4927 478.23808 344.72085 482.97544 346.89453 484.09766 C 350.43652 485.92623 354.99742 488.27411 376.69531 499.42969 C 385.77396 504.09733 403.08273 512.95625 410.50391 516.73438 C 414.05821 518.54389 416.96484 520.10086 416.96484 520.19531 C 416.96484 520.49201 414.62748 520.70478 412.49609 520.60156 C 410.95257 520.52676 409.63576 520.27197 407.14062 519.56641 C 403.56872 518.55614 398.10173 517.45365 394 516.91602 C 391.24866 516.55545 387.24338 516.53242 377.23047 516.82031 C 372.51369 516.956 371.31667 516.92749 370.05469 516.65234 C 366.08633 515.78695 361.0014 513.88503 349.27148 508.875 C 345.23298 507.15014 341.74035 505.74127 341.50977 505.74414 C 340.82794 505.75214 341.18277 506.23707 342.31641 506.84766 C 342.89588 507.15985 345.48538 508.34428 348.07031 509.47852 C 361.00616 515.15484 366.17539 517.02376 371.88867 518.08789 C 373.84023 518.45148 377.33988 518.37017 383.10547 517.83008 C 387.5892 517.41029 393.50807 517.74428 399.01953 518.72656 C 402.07573 519.27115 404.07561 519.75912 408.125 520.94922 L 411.57031 521.96094 L 414.74805 521.90234 C 417.42766 521.85394 418.6593 521.70481 422.58789 520.96289 L 422.58789 520.95898 C 428.11738 519.91485 430.07759 519.27987 432.26562 517.82422 C 434.56229 516.29631 435.98385 514.86122 437.96289 512.07227 C 438.908 510.74036 439.84409 509.59686 440.04297 509.53125 C 440.3767 509.42127 442.01796 510.03066 444.95117 511.35156 C 449.12729 513.2321 450.58483 513.56835 454.34766 513.52148 C 456.26871 513.49878 457.68361 513.36842 458.52539 513.14062 C 463.15021 511.8892 467.33532 508.26783 469.80078 503.38672 C 471.37624 500.26763 472.50977 495.44064 472.50977 491.8457 C 472.50977 489.96021 471.908 486.30296 471.3125 484.57617 C 470.75978 482.97339 469.41136 480.99068 468.05859 479.79102 C 466.8231 478.69533 463.15764 476.84032 452.32227 471.82617 C 449.97234 470.73869 446.60813 469.17311 444.8457 468.34766 C 433.04545 462.82089 432.77539 462.71291 432.77539 463.46484 C 432.77539 463.84627 435.62484 465.2583 447.72852 470.87891 C 460.26608 476.70104 464.94339 479.01241 466.45898 480.13281 C 468.41863 481.58154 470.08685 483.99818 470.66992 486.23438 C 471.46563 489.28592 471.25338 496.27486 470.27539 499.28125 C 468.43083 504.95137 464.57623 509.44013 459.73242 511.55859 C 458.16894 512.24235 457.93487 512.28403 454.86914 512.4043 L 451.64648 512.53125 L 449.09961 511.70703 C 446.21587 510.77477 442.64651 509.21463 441.59766 508.42773 C 440.7761 507.81133 440.72874 507.39954 441.25977 505.49023 C 441.55873 504.41485 441.62677 503.21278 441.63281 498.93945 C 441.64081 493.9713 441.61441 493.62824 441.13086 492.21484 C 440.22513 489.57091 439.30868 488.09266 437.60547 486.5293 C 436.01807 485.07218 434.62508 484.36903 418.56836 476.9082 C 414.80849 475.16115 402.98518 469.65872 392.29297 464.67969 C 381.6008 459.70065 366.45806 452.65387 358.64453 449.02148 C 350.83104 445.38913 336.84476 438.88157 327.5625 434.56055 C 318.28028 430.23953 304.38938 423.77901 296.69336 420.20312 C 236.40259 392.18939 231.71552 389.97788 231.02734 389.22266 C 229.9803 388.07364 231.50027 383.93513 233.85938 381.50977 C 236.34535 378.9539 240.62576 377.4018 244.82617 377.53125 C 246.98137 377.59775 247.07714 377.62135 249.80078 378.85156 C 252.48323 380.06305 266.28729 386.48124 312.82227 408.14844 C 347.0638 424.09173 357.89574 429.1289 369.64648 434.57422 C 380.92089 439.79881 397.97236 447.72436 404.68359 450.86133 C 406.7985 451.84994 413.31613 454.98155 419.16797 457.82031 C 429.6232 462.89225 429.83021 462.98312 431.13086 462.9668 C 433.43951 462.9366 435.41336 461.65852 443.0293 455.26367 C 453.92866 446.11185 468.66444 431.55531 477.66406 421.04883 C 493.30465 402.78944 507.05292 380.22235 516.68164 357.00781 C 523.21856 341.2476 528.77908 323.04676 531.88086 307.25586 C 532.92476 301.94143 534.24977 293.95363 534.25 292.9668 L 534.25 292.05859 z M 257.95312 481.12695 C 245.21275 478.04872 230.2577 473.86096 214.25586 468.50195 C 243.59862 502.25018 262.95044 517.46755 257.95312 481.12695 z M 47.599609 298.11328 C 43.416066 320.60501 46.951372 340.91384 55.832031 359.14062 C 57.84081 354.12864 60.051151 349.19736 61.484375 343.96094 C 62.848108 340.24612 65.383838 333.93063 66.341797 329.63867 C 66.403881 329.36052 66.439024 329.07595 66.488281 328.79492 C 65.861726 329.2247 65.212556 329.61328 64.541016 329.94531 C 64.344476 330.26398 64.13568 330.57853 63.957031 330.9043 C 63.557989 330.82481 63.158808 330.74554 62.759766 330.66602 C 62.401506 330.77381 62.036927 330.86071 61.667969 330.92578 C 60.492551 331.1329 58.965971 329.46137 59.236328 328.29883 C 59.411326 327.54635 59.714858 326.84912 60.091797 326.18164 C 59.81335 326.35588 59.528839 326.52103 59.234375 326.66602 C 58.856573 326.85197 59.295267 325.82123 59.251953 325.40234 C 58.925364 322.24338 57.603264 314.00537 57.277344 311.88086 C 57.046594 309.8108 56.251025 304.45935 55.978516 299.76367 C 52.988481 298.695 50.18402 298.11819 47.599609 298.11328 z M 62.759766 330.66602 C 63.370694 330.4822 63.962176 330.23151 64.541016 329.94531 C 65.301824 328.71175 66.143762 327.51085 66.855469 326.25781 C 66.888843 325.97949 66.930899 325.70342 66.966797 325.42578 C 62.97997 327.41415 55.821797 329.28373 61.925781 330.5 C 62.203746 330.5554 62.4818 330.61062 62.759766 330.66602 z M 81.679688 316.37891 C 81.320073 317.00993 80.998624 317.55564 80.535156 318.41602 C 83.735254 324.37862 86.968685 330.32161 90.314453 336.19727 C 93.770474 342.26653 95.859023 345.89791 97.408203 348.55859 C 97.720204 348.40662 97.929454 348.29939 98.539062 348.01953 C 99.740368 347.46802 99.85768 347.52536 100.15234 347.36523 C 100.24172 345.4458 100.40315 343.93395 100.69336 343.34766 C 101.92239 340.86465 103.0679 339.09651 104.14844 337.86328 C 96.327977 329.70986 88.783873 322.42442 81.679688 316.37891 z M 68.271484 316.88867 C 68.406791 317.77665 68.523405 318.58745 68.650391 319.45703 C 68.798818 319.12126 68.946617 318.78468 69.105469 318.45312 C 68.827861 317.93143 68.548536 317.41067 68.271484 316.88867 z M 76.216797 331.60938 C 75.066939 336.86467 72.75166 342.54098 70.972656 347.42773 C 68.926991 354.95515 65.196853 361.83099 62.886719 369.25977 C 62.734655 369.74879 62.876484 370.59146 62.785156 371.11328 C 62.891172 371.35024 62.978734 371.59491 63.070312 371.83789 C 65.134796 374.98642 67.354778 378.06863 69.724609 381.08008 C 70.359895 379.59493 70.556184 378.54966 71.064453 376.86133 C 71.888953 375.16961 71.984076 374.79157 73.419922 373.06055 C 73.498802 372.96535 73.663078 373.02241 73.785156 373.00391 C 74.052218 372.65279 74.318861 372.30218 74.585938 371.95117 C 75.131178 370.77895 75.406068 369.491 75.962891 368.32422 C 76.481291 367.23794 77.18795 366.25269 77.800781 365.2168 C 80.284581 362.08126 79.633498 362.65334 82.240234 360.18164 C 83.023364 359.43911 83.62922 358.39981 84.630859 357.99805 C 84.654779 357.98805 84.662318 357.99519 84.679688 357.99219 C 84.874902 357.32468 85.067562 356.6561 85.261719 355.98828 C 86.64546 353.77438 86.715611 353.32707 88.091797 352.36914 C 83.992764 345.53365 80.057305 338.59965 76.216797 331.60938 z M 120.49219 356.73438 C 114.73801 366.51308 123.04755 354.4281 117.12891 362.83008 C 117.11156 362.86195 116.60063 363.80079 116.21875 364.5 C 116.12594 368.02853 116.18485 371.56037 116.47852 375.08984 C 118.09925 386.10985 117.73048 383.83177 119.38086 392.24023 C 119.71444 380.40115 120.11568 368.56631 120.49219 356.73438 z M 94.099609 362.10156 C 92.671802 364.30399 87.76737 368.84262 87.271484 369.41211 C 86.729372 370.03471 86.284338 370.73454 85.791016 371.39648 C 85.43506 372.04849 85.01509 372.67059 84.722656 373.35352 C 83.411621 376.41501 85.034357 374.79805 82.345703 378.36914 C 81.469507 379.3876 80.873373 380.0533 80.412109 380.55469 C 80.397779 380.67325 80.336219 380.86822 80.181641 381.20703 C 80.255911 381.12233 80.437065 380.84543 80.404297 380.95312 C 79.815517 382.88709 79.13729 384.71279 78.203125 386.44922 C 82.776437 387.51771 86.981417 388.07093 91.951172 387.07812 C 94.981495 386.49998 98.096961 387.29494 101.14062 387.0625 C 103.33832 386.89469 103.22206 387.17918 102.85742 386.07812 C 102.63692 385.79278 102.15321 385.5808 102.19531 385.22266 C 102.32624 384.10883 102.97655 383.119 103.33008 382.05469 C 103.68146 380.99687 104.02391 379.93455 104.31055 378.85742 C 104.31282 378.84887 104.31416 378.8425 104.31641 378.83398 C 103.37643 378.2549 102.90225 377.02298 102.43555 376.00195 C 101.94653 374.93212 101.59911 373.99031 101.33789 373.09961 C 98.85564 369.47681 96.450775 365.80546 94.099609 362.10156 z M 60.330078 366.6543 C 60.950389 367.85007 61.692267 368.99381 62.322266 370.18555 C 62.425522 369.82836 62.505672 369.47519 62.402344 369.22266 C 61.985711 368.20445 61.02093 367.51047 60.330078 366.6543 z M 197.34375 377.13672 L 197.89258 377.64453 C 198.19381 377.92384 198.90492 378.87134 199.47461 379.75 C 201.24691 382.48381 201.86183 382.93874 203.72461 382.90234 C 204.76451 382.88344 206.1612 382.37291 211.02734 380.24023 C 213.64572 379.09262 213.7366 379.06988 215.72656 379.06055 C 218.08608 379.04925 220.13937 379.4705 224.42188 380.84375 C 228.31145 382.09099 228.41864 382.16295 228.26172 383.42773 C 228.10525 384.68862 227.57537 386.4548 227.19727 386.97656 C 226.93572 387.33789 226.82191 387.3512 226.07031 387.11914 C 225.61016 386.97703 223.41113 386.03065 221.18359 385.01562 L 217.13281 383.16992 L 213.1582 383.21875 C 210.14456 383.25655 208.90102 383.35544 208.02148 383.625 C 203.91095 384.8843 200.26177 388.39198 198.92578 392.36914 C 198.59621 393.35027 198.53057 394.21565 198.53125 397.50195 C 198.53125 401.22059 198.56835 401.57207 199.13672 403.47461 C 199.98413 406.30495 200.97894 408.34508 201.90039 409.14062 C 203.18868 410.2529 204.47625 410.93883 226.08789 422.04297 C 242.58021 430.51671 244.55852 431.58079 245.68164 432.57031 L 246.32812 433.13867 L 245.97656 443.2793 C 245.58546 454.52256 245.23451 462.25692 245.09766 462.66602 C 244.91511 463.21178 244.02258 462.8966 239.91016 460.83203 C 221.98728 451.83441 196.66207 438.67106 193.64453 436.78516 L 192.60352 436.13477 L 192.72656 432.7168 C 192.85166 429.24152 194.15259 409.968 195.11523 397.32227 C 195.46371 392.74341 195.77326 389.92974 196.01953 389.08789 C 196.32756 388.03473 196.39258 386.95023 196.39258 382.95508 C 196.39258 378.22451 196.40508 378.09221 196.86914 377.62109 L 197.34375 377.13672 z M 213.99023 384.30273 C 214.26071 384.30073 214.51291 384.30772 214.74023 384.32422 C 216.31641 384.43647 216.85438 384.6617 229.18555 390.39062 C 244.24993 397.3894 261.21126 405.27592 276.50391 412.39258 C 284.37617 416.05604 291.77819 419.49891 292.95312 420.04297 C 297.48104 422.13947 300.45733 423.52371 314.31641 429.97461 C 322.18867 433.63886 335.07109 439.632 342.94336 443.29297 C 350.81562 446.95397 366.05375 454.04577 376.80469 459.05273 C 387.55563 464.05966 397.21596 468.55366 398.27344 469.03906 C 399.33091 469.52443 403.56144 471.48704 407.67383 473.40039 C 411.78622 475.31374 416.49567 477.49627 418.14062 478.25195 C 419.78555 479.00759 424.38557 481.21013 428.36133 483.14453 C 434.947 486.34881 435.70026 486.76905 436.83008 487.88477 C 438.21108 489.24857 439.37553 491.36998 439.97852 493.61914 C 440.26538 494.68962 440.34923 495.87324 440.34961 498.84766 C 440.35003 502.19756 440.28501 502.94267 439.84766 504.62305 C 438.79253 508.67617 436.93692 512.08375 434.41602 514.60156 C 429.97061 519.04152 424.3112 520.48759 418.56836 518.64844 C 416.16209 517.87787 408.56373 514.23464 397.95312 508.76562 C 388.04386 503.65802 366.59476 492.63297 309.83008 463.46484 C 283.04086 449.69939 249.2978 432.36033 234.8457 424.93359 C 201.63072 407.86483 203.22599 408.7255 202.37695 407.38672 C 200.79658 404.89465 199.94626 401.96253 199.78125 398.44727 C 199.63536 395.3411 199.98472 393.3985 201.09961 391.11914 C 202.37834 388.50533 204.83093 386.36544 207.75391 385.3125 C 209.30033 384.75545 212.09692 384.3168 213.99023 384.30273 z M 191.88867 388.20312 C 192.69967 388.16563 193.07091 388.24542 193.13477 388.43555 C 193.18387 388.58181 193.10127 389.34916 192.95117 390.14062 C 192.50935 392.46742 192.03182 400.07786 190.73242 425.43555 C 190.49847 429.99815 190.20774 433.91522 190.08789 434.14062 C 189.72921 434.81527 189.36219 434.59982 183.41016 430.22656 C 182.59152 429.62508 181.86942 429.12406 181.18555 428.65234 C 174.1032 419.9152 166.85671 410.94932 159.4707 401.88867 C 162.00412 398.74298 164.33045 396.32608 166.02344 395.25195 C 170.40138 392.47434 178.03014 390.19203 188.00586 388.67383 C 189.82714 388.39666 191.07768 388.24059 191.88867 388.20312 z M 109.33789 393.42578 C 109.2064 393.66402 109.07941 393.90385 108.94336 394.14062 C 107.53555 394.96486 106.24777 396.0394 104.7207 396.61328 C 101.24338 397.92009 97.411249 396.68325 93.861328 396.99805 C 90.703383 397.59066 87.746819 397.76562 84.855469 397.625 C 93.053766 405.47065 102.20847 412.76922 111.99609 419.5332 C 111.50411 411.5923 111.06912 403.64838 109.80469 395.7793 C 109.58139 394.63934 109.50947 394.29243 109.33789 393.42578 z M 186.33789 434.99805 C 188.5102 436.02962 191.86612 437.78789 194.73047 439.46094 C 196.24236 440.34402 196.49873 440.58107 196.59375 441.16992 C 196.65455 441.54561 196.79797 444.01398 196.91211 446.65625 C 196.93541 447.19461 196.96854 447.5433 196.99414 448.01172 C 193.51387 443.79094 189.96818 439.46219 186.33789 434.99805 z M 141.42383 437.46094 C 149.40286 441.76248 157.55049 445.76891 165.73828 449.49414 C 165.59147 449.67731 165.44695 449.84054 165.27539 450.01562 C 163.70685 451.61648 161.99765 452.14226 158.04102 452.24219 C 156.92225 452.27239 155.19803 452.20159 154.20898 452.08984 L 154.20703 452.08984 C 149.33499 451.53885 144.62513 448.21524 142.40234 443.75977 L 141.49023 441.93359 L 141.41797 438.52734 C 141.40897 438.12645 141.42383 437.83074 141.42383 437.46094 z M 199.13477 441.75195 C 200.3757 441.59435 203.32089 443.2057 203.86133 444.33789 C 204.36703 445.39733 204.6872 449.72445 204.55469 453.69727 C 204.43601 457.2583 204.44167 457.30179 204.8457 456.89258 C 205.40999 456.32123 205.6298 454.77377 205.77539 450.35547 C 205.84379 448.27869 205.95541 446.4341 206.02344 446.25586 C 206.13267 445.96975 206.24828 445.9658 207.01953 446.22852 C 208.43496 446.71029 212.92081 449.2708 213.94922 450.18359 C 214.84599 450.97956 214.91151 451.11425 215.12305 452.625 C 215.4462 454.9321 215.21765 458.14882 214.65234 459.26367 C 213.78342 460.97773 211.95719 462.41282 209.71875 463.23047 C 205.93123 458.79055 201.96453 454.02838 197.91602 449.12695 C 197.82202 448.11802 197.79441 447.08377 197.8418 446.00391 C 197.97748 442.90825 198.29643 441.85842 199.13477 441.75195 z M 190.50977 459.91602 C 194.22395 461.35914 197.92106 462.75562 201.57812 464.08203 C 199.62795 464.10203 197.78546 464.07173 197.0293 463.94141 L 197.0293 463.93945 C 194.90618 463.57342 192.887 462.35198 190.50977 459.91602 z "
       transform="matrix(0.26458333,0,0,0.26458333,37.041664,71.72619)"
       id="path178" />
    <path
       style="fill:#ff0000;fill-opacity:1;fill-rule:nonzero;stroke:none"
       id="path14831"
       d="m 60.402675,153.17017 c -1.289822,1.47018 -1.233625,1.25094 -2.243242,3.15221 -0.298461,0.56205 -0.609454,1.12687 -0.795918,1.73532 -0.123967,0.40451 -0.03836,0.84874 -0.123024,1.26326 -0.292015,1.42978 -0.934003,2.99165 -1.420838,4.32894 -0.541249,1.99163 -1.528036,3.81054 -2.139259,5.77607 -0.06216,0.1999 0.06453,0.62722 -0.144206,0.61125 -0.206485,-0.0158 0.09458,-0.42939 0.01616,-0.62105 -0.110234,-0.2694 -0.365576,-0.45305 -0.548364,-0.67958 0.255335,0.49221 0.597223,0.94844 0.766007,1.47662 0.05605,0.1754 -0.08396,0.3586 -0.121981,0.53877 -0.02473,0.11719 -0.05235,0.2342 -0.06626,0.35317 -0.04179,0.35714 -0.0089,0.72437 0.0099,1.08152 0.0067,0.11712 0.0155,0.23415 0.02009,0.35138 0.0059,0.14992 0.0094,0.29994 0.01133,0.44996 0.0017,0.13084 0.06539,0.50566 -4.17e-4,0.39256 -0.120455,-0.20702 -0.01756,-0.51731 -0.176451,-0.69654 -0.226107,-0.25505 -0.702554,-0.21992 -0.888974,-0.50526 -0.106031,-0.1623 0.387088,0.0222 0.580632,0.0333 0.799225,-0.0143 1.575224,0.3477 2.194222,0.83693 0.165529,0.13083 0.283559,0.31913 0.460058,0.43473 0.07943,0.052 -0.250103,-0.26042 -0.158099,-0.23695 0.376055,0.0959 0.710577,0.31235 1.065866,0.46852 1.644893,0.43267 2.991599,0.76086 4.670691,0.42543 0.801773,-0.15297 1.625979,0.0575 2.431283,-0.004 0.581474,-0.0444 0.550602,0.0307 0.454125,-0.26062 -0.05834,-0.0755 -0.186153,-0.13174 -0.175013,-0.2265 0.03464,-0.2947 0.206625,-0.55644 0.300162,-0.83804 0.09297,-0.27988 0.183354,-0.56093 0.259193,-0.84592 0.154297,-0.57983 0.01982,-0.79973 0.160024,-0.0498 -0.254825,-0.6481 -0.272838,-1.30073 -0.264774,-1.98367 0.0029,-0.24433 -0.03608,-0.49464 0.01851,-0.73281 0.300666,-1.31169 0.532129,-1.60054 1.116142,-2.72506 0.227273,-0.33495 0.454546,-0.6699 0.681819,-1.00485 0.115052,-0.27266 0.192373,-0.56454 0.345155,-0.81799 0.289261,-0.47987 0.647613,-0.91455 0.973815,-1.37011 0.240207,-0.33547 0.462232,-0.68519 0.725398,-1.00297 0.220958,-0.2668 0.381741,-0.80439 0.72326,-0.7463 0.906768,0.15422 1.628053,0.85644 2.44208,1.28466 -0.0025,9.35268 -0.618211,18.70253 -0.337517,28.05672 0.01133,0.15983 0.168952,0.39313 0.03399,0.4795 -0.711906,0.45559 -1.537347,0.70827 -2.33348,0.99207 -0.06869,0.0245 -0.141348,-0.0455 -0.199836,-0.089 -0.202049,-0.15045 -0.443328,-0.27493 -0.576285,-0.48889 -1.057945,-1.70251 -0.831361,-2.28692 -1.072079,-4.43503 -0.482832,-3.61735 -0.403211,-7.28318 -0.982651,-10.88926 -0.67211,-3.43119 -0.381952,-1.73623 -0.878166,-5.08356 -0.198452,-2.1641 -0.09339,-4.33224 0.115158,-6.48923 0.07145,-0.73896 0.274229,-0.80547 -0.24381,-1.218 -0.128539,-0.21685 -0.251069,-0.43738 -0.385616,-0.65055 -0.07345,-0.11638 -0.373563,-0.36063 -0.237928,-0.33739 0.153698,0.0263 0.165445,0.29284 0.310592,0.34984 0.466373,0.18315 1.211493,-0.087 1.462648,0.34655 0.349563,0.60343 -0.05375,1.39414 -0.0503,2.09151 0.0042,0.84938 0.04881,1.69809 0.07321,2.54714 0.08589,1.13654 -0.05606,1.48054 0.412826,2.34441 0.021,0.0387 0.01717,-0.0863 0.02575,-0.1295 -0.497297,-0.11864 -1.6497,-0.8422 -1.491893,-0.35591 0.658917,2.03047 4.817157,1.82963 -0.798339,1.38906 -4.837691,-6.89819 -8.64528,-14.43785 -12.56787,-21.87442 -0.742434,-1.21258 -0.928954,-1.06112 1.595745,-2.40729 0.211331,-0.11268 0.466449,0.21386 0.579191,0.42515 0.275251,0.51587 0.461074,1.08988 0.538422,1.66945 0.09745,0.73016 -0.06558,1.47453 -0.02071,2.2098 0.05459,0.89431 0.212327,1.77934 0.318491,2.66901 0.08545,0.55384 0.437352,2.73724 0.516479,3.53006 0.02148,0.21519 0.179278,0.50358 0.01877,0.64852 -0.578852,0.52273 -1.260349,1.03085 -2.028443,1.16631 -0.310996,0.0548 -0.715306,-0.38746 -0.643774,-0.69505 0.1777,-0.7641 0.844467,-1.32234 1.2667,-1.98351 0.267018,0.0874 0.534035,0.17486 0.801053,0.26229 2.514473,0.82332 -3.950641,1.78623 -1.355819,2.30327 v 0 c 0.179125,0.0357 0.35825,0.0714 0.537375,0.10708 0.362799,-0.66156 0.898897,-1.25435 1.088398,-1.98467 0.05116,-0.19718 -0.281928,-0.45752 -0.473023,-0.38695 -0.702065,0.25927 -1.193448,0.9197 -1.864877,1.2503 -0.09996,0.0492 0.01586,-0.2234 0.0044,-0.33423 -0.08641,-0.83581 -0.43616,-3.01555 -0.522393,-3.57766 -0.09356,-0.83933 -0.548554,-3.73363 -0.299005,-4.88959 0.166047,-0.76917 0.303817,0.2735 0.462251,0.0567 0.486146,-0.66515 0.709342,-1.57582 1.385204,-2.04696 0.243096,-0.16946 0.306363,0.50733 0.459544,0.761 2.213883,4.19719 4.385101,8.42873 6.733328,12.55256 4.305608,7.56126 1.628423,2.72332 5.159329,8.30381 0.32027,0.50618 0.59308,1.04087 0.889621,1.56131 -5.684751,1.00389 -1.044927,-0.39933 -0.556071,1.69057 0.132041,0.56449 -1.193887,9e-5 -1.722975,-0.23687 -0.294397,-0.13185 -0.42904,-0.49361 -0.563142,-0.78699 -0.545087,-1.19249 -0.458434,-1.81283 -0.556247,-3.13795 -0.01639,-0.62772 -0.206692,-4.89132 0.09557,-5.50197 1.603837,-3.24023 2.687587,-2.0674 3.666273,-0.34067 0.202535,0.38492 0.46991,0.74219 0.607607,1.15478 0.237704,0.71225 0.101694,1.04949 0.03629,1.71486 -0.191709,1.95045 -0.296921,3.91126 -0.133983,5.86955 0.483405,3.28686 0.195025,1.57163 0.886152,5.1421 0.577076,3.63198 0.514317,7.3198 0.990852,10.96311 0.05468,0.707 0.106354,1.41423 0.164027,2.12099 0.01651,0.20233 0.01303,0.40835 0.05852,0.60619 0.06027,0.26212 0.843974,0.40659 0.726024,0.53291 -2.192233,2.34782 -2.056703,1.75111 -2.1326,0.61877 -0.268892,-9.12078 0.18794,-18.24992 0.449955,-27.36518 0.668502,-0.0548 1.343696,-0.27351 2.005508,-0.1644 0.201873,0.0333 -0.316367,0.26335 -0.446212,0.42147 -0.267229,0.32541 -0.487829,0.68658 -0.740401,1.0235 -0.223613,0.29828 -0.496318,0.562 -0.687919,0.88179 -2.012458,3.35888 0.542581,-0.35886 -1.101477,1.97501 -0.01497,0.0275 -0.763423,1.37884 -0.806282,1.54305 -0.0054,0.0206 -0.0248,0.93925 -0.02277,1.08907 0.0014,0.10008 0.03461,0.20177 0.01487,0.2999 -0.0049,0.0242 -0.04736,-0.0137 -0.07105,-0.0206 0.07838,0.24988 0.194946,0.49086 0.235135,0.74964 0.05957,0.3836 -0.09525,1.02413 -0.187565,1.36647 -0.308279,1.14323 -0.735848,2.22569 -1.328129,3.25651 -0.372483,0.21808 -0.71341,0.5024 -1.117447,0.65424 -0.920043,0.34576 -1.933987,0.0185 -2.873237,0.10179 -2.249092,0.42206 -4.113181,0.0481 -6.288938,-0.62007 -0.566767,-0.27675 -1.152909,-0.51349 -1.714024,-0.80152 -0.02779,-0.0143 -0.01897,-0.0628 -0.04226,-0.0836 -0.08168,-0.073 -0.191751,-0.11221 -0.266502,-0.19228 -0.03584,-0.0384 -0.0014,-0.13436 -0.0519,-0.14878 -0.203627,-0.0581 -0.422359,-0.0312 -0.633538,-0.0468 -0.490656,-0.1859 -1.085118,-0.16332 -1.495982,-0.48965 -0.601828,-0.47801 -0.395504,-1.41893 -0.460349,-2.06323 -0.02741,-0.57981 -0.04224,-1.1439 0.03551,-1.7222 0.02258,-0.16797 0.06034,-0.33368 0.09869,-0.49875 0.01313,-0.0565 0.01959,-0.21045 0.0555,-0.16491 0.303316,0.38469 0.527375,0.82572 0.791063,1.23858 -0.284406,-0.27246 -0.665296,-0.47125 -0.853219,-0.81738 -0.288753,-0.53185 -0.05405,-1.29569 0.105812,-1.80552 0.620311,-1.97833 1.605002,-3.81182 2.153758,-5.81675 0.360821,-0.98288 1.031806,-2.65379 1.285266,-3.78937 0.14814,-0.66371 0.137363,-1.36312 0.344698,-2.01079 0.22524,-0.70359 0.584345,-1.35967 0.941334,-2.00646 1.299952,-2.35524 1.251837,-2.09173 2.968513,-3.93042 1.805616,-1.93396 3.298379,0.18595 1.553472,2.17486 z"
       inkscape:connector-curvature="0" />
  </g>
</svg>
